<svg xmlns="http://www.w3.org/2000/svg" viewBox="0 0 400 800">
  <rect width="400" height="800" fill="#7EC8E3"/>
  <circle cx="340" cy="80" r="58" fill="#FFD700"/>
  <g fill="white" opacity="0.9">
    <ellipse cx="80" cy="140" rx="60" ry="28"/><ellipse cx="130" cy="120" rx="50" ry="22"/><ellipse cx="50" cy="155" rx="38" ry="20"/>
  </g>
  <g fill="white" opacity="0.8">
    <ellipse cx="260" cy="210" rx="55" ry="25"/><ellipse cx="315" cy="190" rx="45" ry="20"/><ellipse cx="230" cy="220" rx="35" ry="18"/>
  </g>
  <rect y="680" width="400" height="120" fill="#4CAF50"/>
  <rect y="710" width="400" height="90" fill="#757575"/>
  <rect x="150" y="750" width="100" height="14" fill="#FFD700" opacity="0.8"/>
  <ellipse cx="200" cy="698" rx="165" ry="14" fill="#222" opacity="0.3"/>
  <rect x="20" y="470" width="360" height="145" rx="20" fill="#E63946"/>
  <path d="M80 470 L122 305 L278 305 L320 470Z" fill="#C62828"/>
  <path d="M126 322 L150 462 L248 462 L274 322Z" fill="#ACD8FA" opacity="0.88"/>
  <path d="M275 328 L298 462 L322 462 L302 328Z" fill="#ACD8FA" opacity="0.7"/>
  <line x1="198" y1="470" x2="198" y2="605" stroke="#A00020" stroke-width="4"/>
  <rect x="206" y="538" width="32" height="9" rx="4" fill="#FFD700"/>
  <ellipse cx="374" cy="524" rx="20" ry="13" fill="#FFEE00"/>
  <rect x="18" y="502" width="14" height="32" rx="4" fill="#FF2200"/>
  <rect x="20" y="580" width="40" height="22" rx="6" fill="#B00020"/>
  <circle cx="100" cy="652" r="66" fill="#1A1A1A"/>
  <circle cx="100" cy="652" r="41" fill="#555"/>
  <circle cx="100" cy="652" r="17" fill="#999"/>
  <circle cx="300" cy="652" r="66" fill="#1A1A1A"/>
  <circle cx="300" cy="652" r="41" fill="#555"/>
  <circle cx="300" cy="652" r="17" fill="#999"/>
</svg>
